PathFileType	4	(X/Y/Z)	pose_F01_0-96.trc
DataRate	CameraRate	NumFrames	NumMarkers	Units	OrigDataRate	OrigDataStartFrame	OrigNumFrames
30	30	7	21	m	30	12	96
Frame#	Time	CHip			RHip			RKnee			RAnkle			RBigToe			RSmallToe			RHeel			LHip			LKnee			LAnkle			LBigToe			LSmallToe			LHeel			Neck			Nose			RShoulder			RElbow			RWrist			LShoulder			LElbow			LWrist			
		X1	Y1	Z1	X2	Y2	Z2	X3	Y3	Z3	X4	Y4	Z4	X5	Y5	Z5	X6	Y6	Z6	X7	Y7	Z7	X8	Y8	Z8	X9	Y9	Z9	X10	Y10	Z10	X11	Y11	Z11	X12	Y12	Z12	X13	Y13	Z13	X14	Y14	Z14	X15	Y15	Z15	X16	Y16	Z16	X17	Y17	Z17	X18	Y18	Z18	X19	Y19	Z19	X20	Y20	Z20	X21	Y21	Z21	
12	0.4	-0.17043515542962948	1.823810413883742	-0.5601535229413274	-0.1829560270406126	1.8216408767415637	-0.4980129056576705	-0.17418144439991662	1.6958650902289247	-0.48299070531352434	-0.27548498376513014	1.5514572586334037	-0.5102641025295752	-0.27998456807895034	1.5189153192763019	-0.5332430268031891	-0.27668475515241236	1.5232088296137531	-0.5022333615138955	-0.1724856465134496	1.5654931644864931	-0.46637946393669355	-0.15679535691634322	1.8252377028201463	-0.6218744841975343	-0.14814284564926225	1.6980805298049522	-0.5824442926481117	-0.15419131414819848	1.5722109925713952	-0.5598023521943503	-0.1950830016083146	1.5376568449075123	-0.5788320595139387	-0.1820335060948465	1.5420793628939615	-0.5959369885212945	-0.14288000251878485	1.559144425953176	-0.5489568012998064	-1.7562880635028506	1.8896649710922422	1.189569009575195	-0.19987217748494676	2.029135739015155	-0.594357249380755	-0.1763219067007144	1.974044252881473	-0.491689521423322	-0.1870067465012094	1.8874072425828237	-0.46246151812330755	-0.19888083947480809	1.816719357867566	-0.45220298304602957	-1.5784914377061712	1.8908618868782967	0.8903831837733935	-0.13035554459038684	1.898328981644829	-0.6873422157538648	-0.14323514851740193	1.8255077813780245	-0.6745586769307492
13	0.43333333333333335	-0.17043515542962948	1.823810413883742	-0.5601535229413274	-0.1829560270406126	1.8216408767415637	-0.4980129056576705	-0.17418144439991662	1.6958650902289247	-0.48299070531352434	-0.27548498376513014	1.5514572586334037	-0.5102641025295752	-0.27998456807895034	1.5189153192763019	-0.5332430268031891	-0.27668475515241236	1.5232088296137531	-0.5022333615138955	-0.1724856465134496	1.5654931644864931	-0.46637946393669355	-0.15679535691634322	1.8252377028201463	-0.6218744841975343	-0.14814284564926225	1.6980805298049522	-0.5824442926481117	-0.15419131414819848	1.5722109925713952	-0.5598023521943503	-0.1950830016083146	1.5376568449075123	-0.5788320595139387	-0.1820335060948465	1.5420793628939615	-0.5959369885212945	-0.14288000251878485	1.559144425953176	-0.5489568012998064	-1.7562880635028506	1.8896649710922422	1.189569009575195	-0.19987217748494676	2.029135739015155	-0.594357249380755	-0.1763219067007144	1.974044252881473	-0.491689521423322	-0.1870067465012094	1.8874072425828237	-0.46246151812330755	-0.19888083947480809	1.816719357867566	-0.45220298304602957	-1.5784914377061712	1.8908618868782967	0.8903831837733935	-0.13035554459038684	1.898328981644829	-0.6873422157538648	-0.14323514851740193	1.8255077813780245	-0.6745586769307492
14	0.4666666666666667	-0.17043515542962948	1.823810413883742	-0.5601535229413274	-0.1829560270406126	1.8216408767415637	-0.4980129056576705	-0.17418144439991662	1.6958650902289247	-0.48299070531352434	-0.27548498376513014	1.5514572586334037	-0.5102641025295752	-0.27998456807895034	1.5189153192763019	-0.5332430268031891	-0.27668475515241236	1.5232088296137531	-0.5022333615138955	-0.1724856465134496	1.5654931644864931	-0.46637946393669355	-0.15679535691634322	1.8252377028201463	-0.6218744841975343	-0.14814284564926225	1.6980805298049522	-0.5824442926481117	-0.15419131414819848	1.5722109925713952	-0.5598023521943503	-0.1950830016083146	1.5376568449075123	-0.5788320595139387	-0.1820335060948465	1.5420793628939615	-0.5959369885212945	-0.14288000251878485	1.559144425953176	-0.5489568012998064	-1.7559576039858478	1.889629314485178	1.1890042404226475	-0.19987217748494676	2.029135739015155	-0.594357249380755	-0.1763219067007144	1.974044252881473	-0.491689521423322	-0.1870067465012094	1.8874072425828237	-0.46246151812330755	-0.19888083947480809	1.816719357867566	-0.45220298304602957	-1.5781398746894089	1.8908692480392515	0.8897724487131194	-0.13035554459038684	1.898328981644829	-0.6873422157538648	-0.14323514851740193	1.8255077813780245	-0.6745586769307492
15	0.5	-0.17043515542962948	1.823810413883742	-0.5601535229413274	-0.1829560270406126	1.8216408767415637	-0.4980129056576705	-0.17418144439991662	1.6958650902289247	-0.48299070531352434	-0.27548498376513014	1.5514572586334037	-0.5102641025295752	-0.27998456807895034	1.5189153192763019	-0.5332430268031891	-0.27668475515241236	1.5232088296137531	-0.5022333615138955	-0.1724856465134496	1.5654931644864931	-0.46637946393669355	-0.15679535691634322	1.8252377028201463	-0.6218744841975343	-0.14814284564926225	1.6980805298049522	-0.5824442926481117	-0.15419131414819848	1.5722109925713952	-0.5598023521943503	-0.1950830016083146	1.5376568449075123	-0.5788320595139387	-0.1820335060948465	1.5420793628939615	-0.5959369885212945	-0.14288000251878485	1.559144425953176	-0.5489568012998064	-1.7557839146583492	1.8896352079064718	1.1887111537000925	-0.19987217748494676	2.029135739015155	-0.594357249380755	-0.1763219067007144	1.974044252881473	-0.491689521423322	-0.1870067465012094	1.8874072425828237	-0.46246151812330755	-0.19888083947480809	1.816719357867566	-0.45220298304602957	-1.5782259725205752	1.890587123746103	0.889983804597316	-0.13035554459038684	1.898328981644829	-0.6873422157538648	-0.14323514851740193	1.8255077813780245	-0.6745586769307492
16	0.5333333333333333	-0.17043515542962948	1.823810413883742	-0.5601535229413274	-0.1829560270406126	1.8216408767415637	-0.4980129056576705	-0.17418144439991662	1.6958650902289247	-0.48299070531352434	-0.27548498376513014	1.5514572586334037	-0.5102641025295752	-0.27998456807895034	1.5189153192763019	-0.5332430268031891	-0.27668475515241236	1.5232088296137531	-0.5022333615138955	-0.1724856465134496	1.5654931644864931	-0.46637946393669355	-0.15679535691634322	1.8252377028201463	-0.6218744841975343	-0.14814284564926225	1.6980805298049522	-0.5824442926481117	-0.15419131414819848	1.5722109925713952	-0.5598023521943503	-0.1950830016083146	1.5376568449075123	-0.5788320595139387	-0.1820335060948465	1.5420793628939615	-0.5959369885212945	-0.14288000251878485	1.559144425953176	-0.5489568012998064	-1.7549124367918298	1.8896463081704078	1.1876354601756416	-0.19987217748494676	2.029135739015155	-0.594357249380755	-0.1763219067007144	1.974044252881473	-0.491689521423322	-0.1870067465012094	1.8874072425828237	-0.46246151812330755	-0.19888083947480809	1.816719357867566	-0.45220298304602957	-1.5759083502136002	1.8889277857318205	0.8868594759287528	-0.13035554459038684	1.898328981644829	-0.6873422157538648	-0.14323514851740193	1.8255077813780245	-0.6745586769307492
17	0.5666666666666667	-0.17043515542962948	1.823810413883742	-0.5601535229413274	-0.1829560270406126	1.8216408767415637	-0.4980129056576705	-0.17418144439991662	1.6958650902289247	-0.48299070531352434	-0.27548498376513014	1.5514572586334037	-0.5102641025295752	-0.27998456807895034	1.5189153192763019	-0.5332430268031891	-0.27668475515241236	1.5232088296137531	-0.5022333615138955	-0.1724856465134496	1.5654931644864931	-0.46637946393669355	-0.15679535691634322	1.8252377028201463	-0.6218744841975343	-0.14814284564926225	1.6980805298049522	-0.5824442926481117	-0.15419131414819848	1.5722109925713952	-0.5598023521943503	-0.1950830016083146	1.5376568449075123	-0.5788320595139387	-0.1820335060948465	1.5420793628939615	-0.5959369885212945	-0.14288000251878485	1.559144425953176	-0.5489568012998064	-1.7456243161870229	1.889591650409295	1.1710602236176095	-0.19987217748494676	2.029135739015155	-0.594357249380755	-0.1763219067007144	1.974044252881473	-0.491689521423322	-0.1870067465012094	1.8874072425828237	-0.46246151812330755	-0.19888083947480809	1.816719357867566	-0.45220298304602957	-0.13632651794223982	1.9818167181031061	-0.6651266029601798	-0.13035554459038684	1.898328981644829	-0.6873422157538648	-0.14323514851740193	1.8255077813780245	-0.6745586769307492
18	0.6	-0.16912378067112557	1.8276532426697327	-0.566284833841653	-0.18369751342140356	1.8259788724596455	-0.5020019138435478	-0.17411720829157523	1.6975833554452604	-0.4834024590701371	-0.27548498376513014	1.5514572586334037	-0.5102641025295752	-0.27998456807895034	1.5189153192763019	-0.5332430268031891	-0.27668475515241236	1.5232088296137531	-0.5022333615138955	-0.1724856465134496	1.5654931644864931	-0.46637946393669355	-0.15672565654319784	1.827616735785963	-0.622331373019534	-0.14880318492963723	1.699782426917661	-0.585993789911736	-0.15331539511416933	1.5722795742728102	-0.5565453904607205	-0.19524536609374243	1.5381877260173886	-0.5786803581188977	-0.18410977891951338	1.5419007439564205	-0.593675775502911	-0.14232365552651735	1.5581922708255338	-0.5449769662836341	-1.7453703021664968	1.889561539308651	1.1706395433079089	-0.20069639626149513	2.0302872189253094	-0.5978946657766128	-0.17724859649991587	1.9741916608701613	-0.49482949370998663	-0.18688992706639726	1.891116922929314	-0.4630783976007885	-0.19934988361156605	1.8208671666555811	-0.45632446778688807	-0.1342098042642996	1.982063818479899	-0.6674715234987544	-0.1260415289668966	1.8984059920144376	-0.6920235444693836	-0.14114404179635412	1.824275958344097	-0.6767568564415909
